<svg xmlns="http://www.w3.org/2000/svg" width="80.48" height="80.34" viewBox="0 0 80.48 80.34">
  <g id="f41f63c4-1831-416c-99f4-de7204320b51" data-name="Capa 2">
    <g id="e4171114-513a-4d94-98fa-f4c4544b866d" data-name="Capa 1">
      <g id="b762e79a-6c17-48e0-8d64-174261f7472d" data-name="4">
        <g>
          <path d="M80.48,40.23A40.24,40.24,0,1,1,40.33,0,40.14,40.14,0,0,1,80.48,40.23ZM7,39.84a33.27,33.27,0,1,0,34-32.91C22.47,6.53,6.8,21.84,7,39.84Z" fill="#ff9400"/>
          <path d="M44.29,56.28V63H39.84V56.15L37.11,56V63H32.56V56.13H24.21V51.49c.1-.06.22-.21.35-.22C29,51,29,51,29,46.6v-15c0-3.14-.06-3.19-3.18-3.21H23.58v-4.7H32.2V16.85h4.68v6.67h2.71V16.89H44.1v6.69c3.77.88,7.67,1.23,9.87,4.78,1.86,3,1.1,6.16-2.17,9.8,4.65,2.79,6,5.55,5.05,10.38C55.94,53.19,53.32,54.83,44.29,56.28ZM37.1,41.55V51a68.3,68.3,0,0,0,8.14-.83c2.26-.49,3.28-2.36,3.19-4.68-.08-2.13-1.6-3.08-3.41-3.33C42.47,41.76,39.87,41.73,37.1,41.55ZM37,36.94c.64,0,1.17,0,1.7,0,1.27,0,2.54.08,3.8,0a4.2,4.2,0,0,0,3.74-4,3.37,3.37,0,0,0-2.9-3.76c-2-.39-4.15-.43-6.34-.63Z" fill="#ff9400"/>
        </g>
      </g>
    </g>
  </g>
</svg>
