<svg xmlns="http://www.w3.org/2000/svg" width="50.26" height="80.34" viewBox="0 0 50.26 80.34">
  <g id="f9d58d7e-3958-48e4-bb69-1eaab654ebec" data-name="Capa 2">
    <g id="e68052a6-843f-442b-90aa-d8351bf64d9d" data-name="Capa 1">
      <g id="b628e72d-8cf4-4c15-92ac-6e0222b607bd" data-name="4">
        <g>
          <path d="M49.66,37.05q-5.07-8-10.13-15.92-6.37-10-12.78-20a3.64,3.64,0,0,0-.66-.71,1.51,1.51,0,0,0-1.94,0,2.85,2.85,0,0,0-.61.65Q12,19,.58,37a2.22,2.22,0,0,0,.78,3.14Q12.62,46.63,23.9,53.09a2.18,2.18,0,0,0,2.41,0q11.27-6.48,22.56-12.9C50.43,39.31,50.61,38.55,49.66,37.05ZM23.39,7.43V27.31l-17,7.3-.14-.17Zm0,41.49-18-10.26L23.4,31Zm3.38-41a2.86,2.86,0,0,1,.11-.41L44,34.42l-.15.18-6.5-2.79-9.94-4.25c-.39-.17-.67-.3-.66-.83C26.79,20.46,26.78,14.2,26.78,7.93Zm0,41v-18l18,7.71Z" fill="#ff9400"/>
          <path d="M49.34,45.36h0a1.48,1.48,0,0,0-1.15-.15h0l-.11,0a6.13,6.13,0,0,0-1,.5Q36.44,51.8,25.86,57.88a1.29,1.29,0,0,1-1.5,0Q13.62,51.7,2.85,45.56C1.8,45,1,45,.42,45.71a1.72,1.72,0,0,0,.1,2.36L23.63,79.45a1.68,1.68,0,0,0,3,0c.84-1.11,1.65-2.23,2.47-3.35q10.2-13.83,20.37-27.65l.14-.2h0c.28-.43.49-.87.65-1.13A2,2,0,0,0,49.34,45.36ZM23.43,73.09s-.05.09-.13.25L8.05,52.64l.16-.16,5.84,3.33c2.92,1.67,5.84,3.33,8.74,5a1.28,1.28,0,0,1,.62.87C23.45,65.5,23.43,69.29,23.43,73.09ZM27,73.3l-.18-.07V68.09c0-2.07,0-4.14,0-6.21a1.33,1.33,0,0,1,.48-1c4.83-2.79,9.68-5.55,14.52-8.32a5.39,5.39,0,0,1,.52-.16Z" fill="#ff9400"/>
          <path d="M49.66,37.05q-5.07-8-10.13-15.92-6.37-10-12.78-20a3.64,3.64,0,0,0-.66-.71,1.51,1.51,0,0,0-1.94,0,2.85,2.85,0,0,0-.61.65Q12,19,.58,37a2.22,2.22,0,0,0,.78,3.14Q12.62,46.63,23.9,53.09a2.18,2.18,0,0,0,2.41,0q11.27-6.48,22.56-12.9C50.43,39.31,50.61,38.55,49.66,37.05ZM23.39,7.43V27.31l-17,7.3-.14-.17Zm0,41.49-18-10.26L23.4,31Zm3.38-41a2.86,2.86,0,0,1,.11-.41L44,34.42l-.15.18-6.5-2.79-9.94-4.25c-.39-.17-.67-.3-.66-.83C26.79,20.46,26.78,14.2,26.78,7.93Zm0,41v-18l18,7.71Z" fill="#ff9400"/>
          <path d="M49.34,45.36h0a1.65,1.65,0,0,0-1.15-.15h0l-.11,0a6.13,6.13,0,0,0-1,.5Q36.44,51.8,25.86,57.88a1.29,1.29,0,0,1-1.5,0Q13.62,51.7,2.85,45.56C1.8,45,1,45,.42,45.71a1.72,1.72,0,0,0,.1,2.36L23.63,79.45a1.68,1.68,0,0,0,3,0c.84-1.11,1.65-2.23,2.47-3.35q10.2-13.83,20.37-27.65l.14-.2h0a4,4,0,0,0,.65-1.13A1.62,1.62,0,0,0,49.34,45.36ZM23.43,73.09s-.05.09-.13.25L8.05,52.64l.16-.16,5.84,3.33c2.92,1.67,5.84,3.33,8.74,5a1.28,1.28,0,0,1,.62.87C23.45,65.5,23.43,69.29,23.43,73.09ZM27,73.3l-.18-.07V68.09c0-2.07,0-4.14,0-6.21a1.33,1.33,0,0,1,.48-1c4.83-2.79,9.68-5.55,14.52-8.32a5.39,5.39,0,0,1,.52-.16Z" fill="#ff9400"/>
        </g>
      </g>
    </g>
  </g>
</svg>
