<svg xmlns="http://www.w3.org/2000/svg" width="60" height="55" viewBox="0 0 60 55">
  <g id="e0b32a87-3923-4211-92d4-a3e11361bc1b" data-name="Capa 2">
    <g id="ff08b872-6021-4e6b-b775-b043ce61b114" data-name="Capa 1">
      <g id="eca751ec-0097-495d-8129-57689aae0a3d" data-name="4">
        <g>
          <path d="M60,28.78c-.06.59-.11,1.18-.18,1.77a26.58,26.58,0,0,1-4.18,11.83,27,27,0,0,1-16.4,11.81,27.24,27.24,0,0,1-21.79-3.87l-.26-.19,3.26-4.39a21.64,21.64,0,0,0,17.77,3,21.17,21.17,0,0,0,11.59-7.63,22.12,22.12,0,0,0,.62-26.51A21.82,21.82,0,0,0,10.85,27.47h5.38L8.09,35.64,0,27.49H5.42c0-.54,0-1,0-1.56A27.2,27.2,0,0,1,19.07,3.64,24.62,24.62,0,0,1,28.94.24,26.68,26.68,0,0,1,52.39,8.46,26.46,26.46,0,0,1,59.63,23c.15.93.21,1.88.32,2.82,0,.11,0,.22,0,.33Z" fill="#fff"/>
          <path d="M23.43,36.35l-1.67-2.27,2.08-1.28,7.21-4.44a.55.55,0,0,0,.3-.54c0-4.55,0-9.11,0-13.67v-.41h4c0,.11,0,.22,0,.32q0,7.94,0,15.87a.4.4,0,0,1-.22.42q-5.81,2.94-11.6,5.92Z" fill="#ff9400"/>
        </g>
      </g>
    </g>
  </g>
</svg>
