<svg xmlns="http://www.w3.org/2000/svg" width="60" height="60" viewBox="0 0 60 60">
  <g id="ee287753-57b3-47a9-b399-f5e3f6dd5be6" data-name="Capa 2">
    <g id="a8da96a5-83df-4584-ad4a-551d14f336b5" data-name="Capa 1">
      <g id="a94ca5fe-2bc3-4ab0-86fe-0716b4aa5b37" data-name="4">
        <g>
          <path d="M30,39.51a11.77,11.77,0,0,1-11.93-11.6H14.39A15.4,15.4,0,0,0,30,43.09,15.4,15.4,0,0,0,45.61,27.91H41.93A11.77,11.77,0,0,1,30,39.51" fill="#ff9400"/>
          <path d="M22.67,60c-3.27,0-6.54,0-9.81,0a6.41,6.41,0,0,1-6.4-5,6.69,6.69,0,0,1-.16-1.55q0-11,0-21.94v-.42h-2a4.3,4.3,0,0,1-2.14-.53A3.94,3.94,0,0,1,.05,27.47c0-.07,0-.15,0-.23v-.37a.55.55,0,0,0,.05-.17,4,4,0,0,1,1.31-2.57L18.54,7.9c2-1.92,4.09-3.83,6.1-5.78A7,7,0,0,1,27.82.23c.35-.09.71-.16,1.06-.23h1.26c.52.12,1.05.21,1.55.37A6.84,6.84,0,0,1,34.31,2c1.25,1.19,2.54,2.34,3.82,3.5L58.71,24.16a3.89,3.89,0,0,1,1,4.36,4.15,4.15,0,0,1-3.87,2.56c-.69,0-1.38,0-2.11,0V53.55a6.37,6.37,0,0,1-5.13,6.28,7.43,7.43,0,0,1-1.56.15c-3.24,0-6.48,0-9.72,0Zm24.52-3.4a2.92,2.92,0,0,0,2.06-.84,3.11,3.11,0,0,0,.94-2.41q0-12.66,0-25.31c0-.14,0-.28,0-.43h5.48c.31,0,.59,0,.72-.36s0-.52-.27-.72l-7.06-6.4L31.61,4.28a3,3,0,0,0-4.14,0L6.69,23.91,3.82,26.62a.54.54,0,0,0-.19.63.56.56,0,0,0,.59.36H9.77v.47q0,12.68,0,25.37A3,3,0,0,0,13,56.6Z" fill="#fff"/>
        </g>
      </g>
    </g>
  </g>
</svg>
