<svg xmlns="http://www.w3.org/2000/svg" width="60" height="60" viewBox="0 0 60 60">
  <g id="a0a29a73-1e62-4ec6-a1cb-b2c894ec8bc0" data-name="Capa 2">
    <g id="b8b57fd6-e9ef-4b22-af79-87c9aba0f11d" data-name="Capa 1">
      <g id="bab41e4d-22f4-4a8c-9bb8-43e6764e32b6" data-name="4">
        <g>
          <path d="M46.74,54.14a3.71,3.71,0,0,1-2.28-.75c-1-.72-2-1.44-3-2.17a.62.62,0,0,0-.71-.06c-1,.46-2.07.91-3.13,1.3a.93.93,0,0,0-.7.85c-.2,1.31-.41,2.62-.7,3.91A3.54,3.54,0,0,1,32.92,60c-2,0-3.9.06-5.84,0a3.63,3.63,0,0,1-3.39-3.16c-.21-1.19-.41-2.38-.59-3.58a.81.81,0,0,0-.59-.73c-1.06-.39-2.1-.83-3.13-1.28a.56.56,0,0,0-.66.06c-1,.74-2,1.45-3,2.17a3.69,3.69,0,0,1-5-.4q-1.8-1.76-3.55-3.54a3.7,3.7,0,0,1-.41-4.93c.7-1,1.42-2,2.15-3a.65.65,0,0,0,.09-.75c-.48-1-1-2.12-1.36-3.2a.81.81,0,0,0-.73-.58c-1.35-.23-2.71-.43-4.05-.74A3.53,3.53,0,0,1,0,33c0-1.89,0-3.77,0-5.65a3.68,3.68,0,0,1,3.22-3.5c1.21-.2,2.42-.38,3.63-.62a.78.78,0,0,0,.49-.42c.48-1.11.92-2.24,1.39-3.35a.62.62,0,0,0-.06-.71c-.75-1-1.48-2-2.2-3.08a3.59,3.59,0,0,1,.25-4.77c1.31-1.42,2.7-2.77,4.12-4.08a3.49,3.49,0,0,1,4.25-.28c1.14.74,2.23,1.56,3.32,2.36a.62.62,0,0,0,.71.07c1.09-.49,2.18-1,3.29-1.39A.69.69,0,0,0,23,6.9c.23-1.37.44-2.75.74-4.1A3.53,3.53,0,0,1,27,0q2.85-.08,5.7,0a3.64,3.64,0,0,1,3.45,3.15c.21,1.21.42,2.42.61,3.63a.69.69,0,0,0,.52.61c1.14.44,2.27.91,3.4,1.4a.65.65,0,0,0,.75-.06c1-.73,2-1.44,3-2.14a3.58,3.58,0,0,1,4.77.22C50.66,8.16,52,9.54,53.32,11a3.44,3.44,0,0,1,.32,4.2c-.73,1.14-1.55,2.23-2.35,3.33a.72.72,0,0,0-.08.84c.46,1,.9,2.1,1.31,3.17a.8.8,0,0,0,.72.59c1.35.21,2.69.42,4,.71A3.49,3.49,0,0,1,60,27c0,1.95.06,3.9,0,5.85a3.64,3.64,0,0,1-3.18,3.42c-1.21.21-2.42.41-3.64.59a.69.69,0,0,0-.62.51c-.42,1.09-.86,2.16-1.33,3.22a.71.71,0,0,0,.07.84c.71,1,1.4,1.94,2.08,2.92a3.72,3.72,0,0,1-.44,5.11c-1.26,1.27-2.52,2.53-3.81,3.76A3.35,3.35,0,0,1,46.74,54.14Zm-5.48-6.9a8.44,8.44,0,0,1,1.13.55c1.31.9,2.6,1.83,3.88,2.76.34.24.58.27.89,0,1.09-1.13,2.21-2.24,3.33-3.34a.58.58,0,0,0,.06-.89c-.89-1.22-1.72-2.47-2.63-3.67A2.11,2.11,0,0,1,47.74,40a16.85,16.85,0,0,0,1.89-4.56,2,2,0,0,1,1.84-1.65c1.5-.22,3-.5,4.51-.72.51-.08.68-.31.67-.81,0-1.48,0-2.95,0-4.43,0-.69,0-.73-.73-.84-1.53-.25-3.06-.53-4.6-.77a1.87,1.87,0,0,1-1.63-1.49,18,18,0,0,0-2-4.74,2,2,0,0,1,.17-2.5c.91-1.22,1.76-2.48,2.66-3.71a.6.6,0,0,0-.07-.93c-1.1-1.08-2.19-2.16-3.26-3.27a.61.61,0,0,0-1-.09c-1.28.95-2.58,1.86-3.86,2.8a1.82,1.82,0,0,1-2.12.14,11.41,11.41,0,0,0-1.39-.72c-1.21-.48-2.44-.94-3.68-1.35a2,2,0,0,1-1.5-1.68c-.23-1.55-.53-3.1-.77-4.65-.06-.43-.24-.62-.7-.62-1.47,0-2.94,0-4.42,0-.83,0-.83,0-1,.81-.24,1.47-.5,2.94-.73,4.41a2,2,0,0,1-1.57,1.79,18.62,18.62,0,0,0-4.74,2,2,2,0,0,1-2.37-.13c-1.25-.93-2.53-1.81-3.79-2.73a.59.59,0,0,0-.92.09q-1.61,1.65-3.26,3.26a.63.63,0,0,0-.08,1c.89,1.2,1.71,2.45,2.62,3.63a2.17,2.17,0,0,1,.18,2.71,16.87,16.87,0,0,0-1.82,4.49,2.07,2.07,0,0,1-1.95,1.69c-1.49.21-3,.5-4.46.73a.59.59,0,0,0-.57.69c0,1.56,0,3.12,0,4.67,0,.47.2.63.62.7,1.56.24,3.1.53,4.66.77a2,2,0,0,1,1.74,1.56,18.59,18.59,0,0,0,2,4.69,2,2,0,0,1-.14,2.45c-.91,1.22-1.76,2.49-2.66,3.71a.62.62,0,0,0,.06,1q1.66,1.61,3.27,3.27a.59.59,0,0,0,.92.08c1.22-.89,2.48-1.72,3.67-2.64a2.35,2.35,0,0,1,2.73-.19,37.43,37.43,0,0,0,4.39,1.8,2.11,2.11,0,0,1,1.62,1.86c.23,1.5.5,3,.73,4.51a.61.61,0,0,0,.73.63c1.51,0,3,0,4.52,0,.67,0,.71,0,.82-.69.26-1.56.53-3.1.78-4.65a1.81,1.81,0,0,1,1.41-1.59,21.14,21.14,0,0,0,4.93-2A7.65,7.65,0,0,1,41.26,47.24Z" fill="#fff"/>
          <path d="M30,17.06A12.93,12.93,0,1,1,17.08,30,13,13,0,0,1,30,17.06Zm0,22.49A9.56,9.56,0,1,0,20.45,30,9.57,9.57,0,0,0,30,39.55Z" fill="#ff9400"/>
        </g>
      </g>
    </g>
  </g>
</svg>
