<svg xmlns="http://www.w3.org/2000/svg" width="60" height="62" viewBox="0 0 60 62">
  <g id="ad0bb9a2-a67c-4939-9947-39daf41a526c" data-name="Capa 2">
    <g id="f1fefebb-3571-4d24-90fa-76773e088d47" data-name="Capa 1">
      <g id="a7397064-cc4a-409d-9232-7a64c1e66751" data-name="4">
        <g>
          <path d="M60,33.45c-.08.6-.15,1.21-.23,1.81a29.67,29.67,0,0,1-8.06,16.43,30.17,30.17,0,0,1-6.3,5l-.22.14.36.12c1.16.33,2.32.65,3.47,1a2.07,2.07,0,1,1-1.2,4l-6.39-1.84-3.27-.94a2,2,0,0,1-1.46-2.56c.23-.79.47-1.57.71-2.36q.9-3,1.81-6.09c.12-.39.23-.78.36-1.16a2.11,2.11,0,0,1,2.58-1.34,2,2,0,0,1,1.47,2.47c-.34,1.26-.74,2.5-1.12,3.75l-.07.27c.1-.05.17-.07.23-.11a24.54,24.54,0,0,0,8.11-7.91,27.06,27.06,0,0,0,2-3.94,21.23,21.23,0,0,0,1.2-3.8A23.75,23.75,0,0,0,54.44,29a24.36,24.36,0,0,0-1.6-6.66,24,24,0,0,0-6.35-9.14,25.2,25.2,0,0,0-12.06-6A24.34,24.34,0,0,0,28,6.76h-.36A.76.76,0,0,1,26.85,6c0-1.29,0-2.57,0-3.86a.8.8,0,0,1,.84-.8A31.11,31.11,0,0,1,48.51,7.8a29.78,29.78,0,0,1,8,9.44,29.22,29.22,0,0,1,3,8.54c.17.93.27,1.89.4,2.84,0,.08,0,.16,0,.25Z" fill="#fff"/>
          <path d="M14.82,5.15,12.58,4.5,11,4a2,2,0,0,1-1.41-2.6A2.12,2.12,0,0,1,12.2.09l4.64,1.33,5,1.42a2.08,2.08,0,0,1,1.5,2.72c-.92,3.08-1.85,6.16-2.77,9.23a2.14,2.14,0,0,1-2.84,1.54,2,2,0,0,1-1.29-2.47c.36-1.25.75-2.5,1.12-3.75,0-.06,0-.11.07-.25l-.94.57A24.3,24.3,0,0,0,6.94,22.72,23.27,23.27,0,0,0,5.66,33.37a24.44,24.44,0,0,0,13.13,19,25.44,25.44,0,0,0,12.65,2.86l1,0a.65.65,0,0,1,.74.69v4a.64.64,0,0,1-.66.67,31.23,31.23,0,0,1-15.63-3.09A29.92,29.92,0,0,1,3.24,44.18,29.35,29.35,0,0,1,.11,28.3a28.21,28.21,0,0,1,1.23-6.22A29.81,29.81,0,0,1,8.09,10.56a30.14,30.14,0,0,1,6.44-5.18l.25-.16S14.8,5.19,14.82,5.15Z" fill="#fff"/>
          <path d="M32.18,46.44H27.86V45.18c0-.45,0-.91,0-1.36,0-.26-.11-.3-.32-.33a10,10,0,0,1-3.8-1.32,8.1,8.1,0,0,1-3.51-5c-.15-.54-.25-1.11-.38-1.71l4.66-.44a6.08,6.08,0,0,0,1.82,3.5,4.45,4.45,0,0,0,1.51.88v-7.3c-.67-.23-1.34-.44-2-.68a8.13,8.13,0,0,1-3.63-2.41A6.26,6.26,0,0,1,24,19.62a10.08,10.08,0,0,1,3.46-1.14l.38-.07V15.56l.29,0h3.71c.27,0,.34.08.33.33,0,.77,0,1.55,0,2.32,0,.21.06.28.27.31a9.17,9.17,0,0,1,3,.87,7.16,7.16,0,0,1,2.37,1.83,7,7,0,0,1,1.61,4.09v.2l-4.76.2a3.91,3.91,0,0,0-2.47-3.24c0,.12,0,.22,0,.32,0,1.79,0,3.58,0,5.37,0,.24.12.28.31.33a19.31,19.31,0,0,1,3.79,1.31,6.54,6.54,0,0,1,3.9,5.89A7.14,7.14,0,0,1,38.29,41,7.91,7.91,0,0,1,34,43.31a14.91,14.91,0,0,1-1.49.24c-.22,0-.3.09-.3.32,0,.7,0,1.41,0,2.12Zm0-6.85a4.12,4.12,0,0,0,2.9-2,2.64,2.64,0,0,0-.43-3.17,5.82,5.82,0,0,0-2.47-1.16ZM27.83,27.21v-4.9A4.54,4.54,0,0,0,26,23.2a2,2,0,0,0-.37,2.61A4.12,4.12,0,0,0,27.83,27.21Z" fill="#ff9400"/>
        </g>
      </g>
    </g>
  </g>
</svg>
