<svg xmlns="http://www.w3.org/2000/svg" width="179.5" height="164.33" viewBox="0 0 179.5 164.33">
  <g id="a12ebbef-ad86-43d5-b8c0-8a54b51a9008" data-name="Capa 2">
    <g id="a7c9329c-fd09-43b7-8344-966c2cf9ee42" data-name="Capa 1">
      <g>
        <path d="M2.81,52.13h5a12.18,12.18,0,0,1,2.44-11.05c2.66-3.32,6.24-4.17,10.17-3.61h0c.84-3.31,1.43-6.62,2.52-9.75C30.13,7.2,52.35-3.23,73.1,4.14a4,4,0,0,0,4-.39A22.18,22.18,0,0,1,106.2,7.61,3.26,3.26,0,0,0,110,8.75c20.9-5.15,40.52,6,47,26.59.34,1.08.6,1.83,2,2,8.59,1.18,14.39,6,18.8,13.44,1.66,2.81,1.61,5.27,1.61,8q.09,51.36,0,102.7v0a2.83,2.83,0,0,1-2.83,2.82H2.81A2.81,2.81,0,0,1,0,161.52V54.94A2.81,2.81,0,0,1,2.81,52.13Zm7.43,104.65H169.08A2.81,2.81,0,0,0,171.9,154V134.46H119.78V82h52.08V62.62a2.81,2.81,0,0,0-2.81-2.81H10.25a2.81,2.81,0,0,0-2.81,2.81v26.7c.25.11.38.22.52.22,10.14,0,20.27,0,30.41,0a3.57,3.57,0,0,0,2.15-1.07c3.46-3.37,6.9-6.77,10.25-10.25a10.79,10.79,0,0,0,2.07-3.28c2-5,7.23-8.42,11.88-7.74a12.44,12.44,0,0,1,9.84,9.49c.83,4.26-1.83,9.19-6.25,11.58-4.22,2.29-8.5,1.6-12.42-2l-1.32-1.21h0c-3.53,3.54-7,7-10.42,10.5a4.59,4.59,0,0,1-3.65,1.56c-10.22-.08-20.43,0-30.65,0H7.46v7.48h2.9c19.88,0,39.76,0,59.64,0,3.14,0,5.52-.14,7.75-3.31,3.92-5.58,11-5.56,15.89-.76s4.61,11.34-.36,15.89c-5.42,5-12.87,3.82-16.91-2.72a2.94,2.94,0,0,0-2.9-1.68q-32,.08-64.08,0c-.67,0-1.34.09-1.93.13v7.34h2.65c10.06,0,20.12,0,30.18,0a4.82,4.82,0,0,1,3.88,1.57c3.37,3.55,6.86,7,10.29,10.43h0a44,44,0,0,1,3.67-2.87c4.27-2.67,9.19-2,13,1.8s4.67,8.7,2,13c-2.34,3.82-5.68,6.37-10.36,6-4.88-.39-8-3.4-10-7.76a10.07,10.07,0,0,0-1.76-2.93c-3.41-3.54-6.87-7-10.43-10.4a4.85,4.85,0,0,0-3-1.24c-9.51-.1-19-.06-28.53-.06H7.43v27A2.81,2.81,0,0,0,10.24,156.78Zm161.6-29.87V89.77H127.22v37.14Zm-21-74.76h0c2.81-13.73-3.93-27.25-16.62-33.78-12.86-6.62-27.94-4.2-37.38,5.92a2.4,2.4,0,0,0-.54,2.88A37.87,37.87,0,0,1,98.63,45.3c-.27,2.22-.65,4.43-1,6.66h8.43L106,49.31h0l-2.42-.18a1.36,1.36,0,0,1-1.26-1.36V41.84h0l3.62-.28h0V31.71h0l-2.28-.14a1.37,1.37,0,0,1-1.29-1.36V24.07h7.92l.26-3.55h7.23L118,24h3.33l.28-3.47h7.2c.1,1.43-.21,3,.41,4s2.22,1.3,3.25,2.09c3.91,3,6.21,6.86,5.34,11.91a25.48,25.48,0,0,1-2,5.29h0c1.57,2.64,3,5.08,4.48,7.46a2,2,0,0,0,1.36.88C144.66,52.19,147.69,52.15,150.82,52.15ZM59.51,9h0a31,31,0,0,0-18.7,6.38c-11.19,8.3-15.66,21.86-11.58,34.81.48,1.51,1.12,2.08,2.75,2,3.1-.15,6.22,0,9.34,0H48c-4.22-4.25-4.39-7.88.33-11h0a42.89,42.89,0,0,0-2.89-3.5c-1.28-1.27-1.21-2.34-.29-3.85,2.68-4.38,5.17-8.87,7.74-13.31ZM89.58,52.08c3.78-11,2.67-21.36-4.66-30.58C78.7,13.67,70.54,9.35,59.9,9h0L73.23,32c2.17,3.75,2.16,3.75-.61,7.24-.43.53-.82,1.09-1.29,1.73h0c1,1.28,2,2.55,3,3.66a2,2,0,0,1,.23,2.87c-.9,1.4-1.66,2.9-2.57,4.54Zm24.13-20.44V41.4c4.26,0,8.37.12,12.46,0,3.18-.13,4.32-1.56,4.31-4.77,0-3.05-1.42-4.79-4.41-4.91C122,31.53,118,31.64,113.71,31.64ZM59.7,43,66.26,35h0L59.71,23.68h0L53.19,35h0L59.69,43Zm40.64-30.83C96,7.36,87.25,5.83,83.38,9l9.68,8.53c1.75-1.28,4.44-3.24,7.28-5.33Zm69.51,39.86a12.52,12.52,0,0,0-10.9-7c-.09,1.82-.19,3.65-.29,5.53A1.35,1.35,0,0,0,160,52.05ZM113.61,52h18.82A4.68,4.68,0,0,0,128,49.24c-1.08,0-2.16,0-3.24,0H113.61ZM63.34,74.61q-3.68.06-3.61,3.81c0,2.49,1.25,3.68,3.75,3.67s3.8-1.3,3.72-3.92C67.13,75.73,65.87,74.57,63.34,74.61ZM85.91,112c2.49,0,3.73-1.19,3.75-3.66s-1.15-3.76-3.61-3.81-3.88,1.19-3.87,3.78S83.41,112,85.91,112ZM63.47,134.5c-2.48,0-3.72,1.22-3.74,3.68s1.15,3.75,3.61,3.79c2.62.05,3.87-1.18,3.86-3.78S66,134.5,63.47,134.5ZM21.88,52.14h0c-.37-2.2-.6-4.21-1.1-6.15a2.45,2.45,0,0,0-1.61-1.35,4,4,0,0,0-4.37,3c-.32,2.52,1.1,4.39,3.5,4.52C19.46,52.2,20.61,52.14,21.88,52.14Z" fill="#ff9400"/>
        <path d="M157,108.3c0,5.71-5.58,11.25-11.29,11.22s-11.11-5.5-11.17-11.11,5.47-11.31,11.18-11.35S157,102.59,157,108.3ZM145.8,112c2.5,0,3.72-1.19,3.75-3.67s-1.23-3.84-3.84-3.81-3.66,1.28-3.64,3.78S143.31,112,145.8,112Z" fill="#ff9400"/>
      </g>
    </g>
  </g>
</svg>
